# 3ds Max Wavefront OBJ Exporter v0.97b - (c)2007 guruware
# File Created: 12.10.2017 11:00:23

mtllib Alien10.mtl

#
# object Alien10
#

v  0.5041 -2.4310 0.8001
v  -0.1798 -2.4316 0.8002
v  -0.0529 -2.5340 0.7250
v  0.3844 -2.5340 0.7250
v  1.4284 -0.3350 -0.5546
v  1.0988 -0.9883 -0.3101
v  -0.2271 -0.9883 -0.0764
v  -0.0377 -0.3350 -0.3148
v  1.9563 -0.2337 0.0819
v  1.4815 -0.8781 0.2265
v  1.7399 -0.9883 -0.0764
v  2.2147 -0.3350 -0.3273
v  1.2090 -0.2337 -0.0620
v  0.8933 -0.8781 0.0957
v  -0.3727 -0.8781 0.2265
v  -0.2107 -0.2337 0.0561
v  -0.2609 -2.0927 0.4561
v  -0.2378 -1.6010 0.2397
v  1.0393 -1.6002 0.0059
v  0.7081 -2.0809 0.2443
v  1.3714 -1.5493 0.3771
v  0.7212 -2.0013 0.5577
v  0.9796 -2.0595 0.4511
v  1.6299 -1.5993 0.2397
v  0.4842 -1.5493 0.3771
v  0.1559 -2.0013 0.5577
v  -0.3901 -2.0013 0.5577
v  -0.3727 -1.5493 0.3771
v  2.0300 -1.4576 0.0083
v  1.1672 -1.4696 -0.2081
v  1.7716 -1.3189 0.4269
v  -0.3727 -1.3537 0.5260
v  0.6808 -1.3365 0.4696
v  0.6895 -2.3856 0.5208
v  0.4768 -2.3628 0.4416
v  0.4311 -2.2428 0.8090
v  -0.4354 -2.2428 0.8456
v  -0.0097 -2.2428 0.8553
v  -1.5571 -1.5886 0.4383
v  -1.5571 -1.6114 0.3757
v  -1.2942 -1.4053 0.5109
v  -1.5571 -1.3331 0.2317
v  -1.5571 -1.2829 0.3697
v  -0.3727 -1.4813 0.0424
v  -1.4175 -1.5039 0.2203
v  -0.4751 -2.5340 0.7250
v  -0.4751 -2.4322 0.8003
v  -1.6185 -2.3351 0.7931
v  -1.6185 -2.3559 0.7549
v  -1.3730 -2.2230 0.8652
v  -1.5798 -2.2110 0.6409
v  -1.5798 -2.1133 0.6787
v  -0.4354 -2.3856 0.5208
v  -1.5731 -2.3395 0.6396
v  -2.8284 -1.4589 0.4421
v  -2.8593 -2.1053 0.7334
v  0.0756 0.0000 -0.5578
v  1.6411 0.0000 -0.8652
v  2.0431 0.0000 0.1875
v  1.2205 0.0000 0.0664
v  2.8593 0.0000 -0.5502
v  -0.2719 0.0000 0.2064
v  0.5041 2.4310 0.8001
v  0.3844 2.5340 0.7250
v  -0.0529 2.5340 0.7250
v  -0.1798 2.4316 0.8002
v  1.4284 0.3350 -0.5546
v  -0.0377 0.3350 -0.3148
v  -0.2271 0.9883 -0.0764
v  1.0988 0.9883 -0.3101
v  1.9563 0.2337 0.0819
v  2.2147 0.3350 -0.3273
v  1.7399 0.9883 -0.0764
v  1.4815 0.8781 0.2265
v  1.2090 0.2337 -0.0620
v  0.8933 0.8781 0.0957
v  -0.2107 0.2337 0.0561
v  -0.3727 0.8781 0.2265
v  -0.2609 2.0927 0.4561
v  0.7081 2.0809 0.2443
v  1.0393 1.6002 0.0059
v  -0.2378 1.6010 0.2397
v  1.3714 1.5493 0.3771
v  1.6299 1.5993 0.2397
v  0.9796 2.0595 0.4511
v  0.7212 2.0013 0.5577
v  0.4842 1.5493 0.3771
v  0.1559 2.0013 0.5577
v  -0.3727 1.5493 0.3771
v  -0.3901 2.0013 0.5577
v  1.1672 1.4696 -0.2081
v  2.0300 1.4576 0.0083
v  1.7716 1.3189 0.4269
v  -0.3727 1.3537 0.5260
v  0.6808 1.3365 0.4696
v  0.4768 2.3628 0.4416
v  0.6895 2.3856 0.5208
v  0.4311 2.2428 0.8090
v  -0.0097 2.2428 0.8553
v  -0.4354 2.2428 0.8456
v  -1.5571 1.6114 0.3757
v  -1.5571 1.5886 0.4383
v  -1.2942 1.4053 0.5109
v  -1.5571 1.2829 0.3697
v  -1.5571 1.3331 0.2317
v  -1.4175 1.5039 0.2203
v  -0.3727 1.4813 0.0424
v  -0.4751 2.5340 0.7250
v  -1.6185 2.3559 0.7549
v  -1.6185 2.3351 0.7931
v  -0.4751 2.4322 0.8003
v  -1.3730 2.2230 0.8652
v  -1.5798 2.1133 0.6787
v  -1.5798 2.2110 0.6409
v  -1.5731 2.3395 0.6396
v  -0.4354 2.3856 0.5208
v  -2.8284 1.4589 0.4421
v  -2.8593 2.1053 0.7334
# 118 vertices

vn 0.0006 -0.5917 0.8061
vn 0.0000 -0.5895 0.8078
vn -0.1671 -0.2705 -0.9481
vn -0.1541 -0.2989 -0.9418
vn 0.6553 -0.3304 0.6793
vn 0.7571 -0.3348 0.5610
vn -0.2051 0.3263 0.9227
vn -0.1779 0.3384 0.9240
vn -0.8846 0.0894 -0.4578
vn -0.8897 0.1064 -0.4439
vn -0.1655 -0.3908 -0.9055
vn -0.1984 -0.3222 -0.9256
vn 0.3516 -0.1357 0.9263
vn 0.4292 -0.2019 0.8804
vn 0.0000 0.3710 0.9286
vn -0.7035 -0.2584 -0.6621
vn -0.7364 -0.2264 -0.6375
vn 0.2435 -0.0245 -0.9696
vn 0.3387 -0.1489 -0.9291
vn 0.7844 0.5399 0.3053
vn 0.6930 0.6218 0.3649
vn 0.0317 0.6228 0.7817
vn 0.0871 0.5308 0.8430
vn 0.2748 -0.4287 -0.8607
vn 0.4497 -0.7296 -0.5153
vn 0.5912 -0.3730 0.7151
vn 0.4239 0.3570 0.8324
vn -0.0145 0.7673 0.6412
vn 0.0000 0.7765 0.6302
vn 0.0509 -0.9173 0.3950
vn 0.0426 -0.9388 0.3417
vn 0.0059 -0.3753 0.9269
vn 0.0611 -0.6044 0.7943
vn -0.3209 0.8299 -0.4563
vn -0.3408 0.8834 -0.3215
vn -0.1611 -0.1860 -0.9693
vn -0.2003 -0.0985 -0.9748
vn -0.0556 -0.5940 0.8026
vn -0.1232 -0.8709 0.4758
vn 0.0058 -0.5502 0.8350
vn -0.0255 -0.2275 0.9734
vn -0.1631 0.6211 -0.7666
vn -0.1278 0.3576 -0.9251
vn -0.1087 -0.1523 -0.9823
vn -0.1390 0.0029 -0.9903
vn -0.0945 -0.9355 0.3405
vn 0.0253 0.2189 0.9754
vn -0.1479 0.9294 -0.3383
vn -0.1010 -0.4571 -0.8837
vn -0.1825 -0.8629 0.4714
vn 0.0410 0.4524 0.8909
vn -0.0376 0.3603 -0.9321
vn -0.1068 -0.5968 -0.7953
vn 0.1349 -0.9316 -0.3375
vn 0.1276 -0.8788 -0.4598
vn 0.4794 0.0739 0.8745
vn 0.3862 -0.7776 0.4962
vn 0.0000 -0.6055 0.7958
vn 0.0552 -0.4403 0.8962
vn -0.0795 0.5311 0.8435
vn -0.0511 0.7055 0.7068
vn -0.0638 -0.8719 -0.4856
vn -0.0557 -0.7969 -0.6015
vn -0.0000 -0.8561 -0.5168
vn 0.0910 -0.8654 -0.4928
vn 0.5464 -0.8048 0.2319
vn 0.7795 0.2757 0.5625
vn 0.0008 -0.2328 0.9725
vn -0.0218 -0.2615 0.9650
vn -0.0069 0.7667 0.6419
vn 0.0285 0.8750 0.4833
vn -0.1559 -0.9675 -0.1991
vn -0.0946 -0.7965 -0.5972
vn -0.3888 0.2017 0.8990
vn -0.5359 -0.3879 -0.7499
vn -0.4395 0.4712 0.7647
vn -0.9274 -0.0442 -0.3713
vn -0.1347 -0.5517 -0.8231
vn -0.1514 -0.6186 -0.7710
vn 0.0014 -0.5949 0.8038
vn -0.0000 -0.5922 0.8058
vn 0.2484 -0.4469 -0.8594
vn 0.2924 -0.5205 -0.8022
vn 0.1000 0.2308 0.9679
vn 0.0812 0.1992 0.9766
vn 0.3000 -0.5816 -0.7561
vn 0.4101 -0.7893 -0.4570
vn -0.1547 -0.2259 -0.9618
vn -0.1707 -0.1829 -0.9682
vn 0.0284 0.4291 0.9028
vn -0.1616 0.6676 0.7268
vn -0.0596 -0.5391 -0.8401
vn -0.2117 -0.0890 -0.9733
vn 0.0000 0.7210 0.6929
vn 0.0684 0.7557 0.6513
vn -0.1356 -0.3657 0.9208
vn -0.1670 -0.4683 0.8676
vn -0.0717 -0.8736 -0.4813
vn -0.1023 -0.8209 -0.5619
vn 0.0421 -0.2801 0.9590
vn 0.0000 -0.3985 0.9172
vn -0.0313 -0.8057 -0.5915
vn 0.1044 -0.0062 0.9945
vn 0.0004 -0.2800 0.9600
vn 0.1899 -0.7296 -0.6569
vn 0.1662 -0.7477 -0.6429
vn 0.6726 -0.4974 0.5478
vn 0.5245 -0.6231 0.5802
vn -0.9012 0.0412 -0.4315
vn -0.9103 0.0076 -0.4140
vn 0.0726 -0.4828 0.8727
vn 0.0795 -0.5244 0.8478
vn 0.0000 0.5895 0.8078
vn 0.0006 0.5917 0.8061
vn -0.1541 0.2989 -0.9418
vn -0.1671 0.2705 -0.9481
vn 0.7571 0.3348 0.5610
vn 0.6553 0.3304 0.6793
vn -0.1779 -0.3384 0.9240
vn -0.2051 -0.3263 0.9227
vn -0.8897 -0.1064 -0.4439
vn -0.8846 -0.0894 -0.4578
vn -0.1984 0.3222 -0.9256
vn -0.1655 0.3908 -0.9055
vn 0.4292 0.2019 0.8804
vn 0.3516 0.1357 0.9263
vn 0.0000 -0.3710 0.9286
vn -0.7364 0.2264 -0.6375
vn -0.7035 0.2584 -0.6621
vn 0.3387 0.1489 -0.9291
vn 0.2435 0.0245 -0.9696
vn 0.6930 -0.6218 0.3649
vn 0.7844 -0.5399 0.3053
vn 0.0871 -0.5308 0.8430
vn 0.0317 -0.6228 0.7817
vn 0.4497 0.7296 -0.5153
vn 0.2748 0.4287 -0.8607
vn 0.4239 -0.3570 0.8324
vn 0.5912 0.3730 0.7151
vn 0.0000 -0.7765 0.6302
vn -0.0145 -0.7672 0.6412
vn 0.0426 0.9388 0.3417
vn 0.0509 0.9173 0.3950
vn 0.0611 0.6044 0.7943
vn 0.0059 0.3753 0.9269
vn -0.3408 -0.8834 -0.3215
vn -0.3209 -0.8299 -0.4563
vn -0.2003 0.0985 -0.9748
vn -0.1611 0.1860 -0.9693
vn -0.1232 0.8709 0.4758
vn -0.0556 0.5940 0.8026
vn -0.0255 0.2275 0.9734
vn 0.0058 0.5502 0.8350
vn -0.1278 -0.3576 -0.9251
vn -0.1631 -0.6211 -0.7666
vn -0.1390 -0.0029 -0.9903
vn -0.1087 0.1523 -0.9823
vn -0.0945 0.9355 0.3405
vn 0.0253 -0.2189 0.9754
vn -0.1479 -0.9294 -0.3383
vn -0.1010 0.4571 -0.8837
vn -0.1825 0.8629 0.4714
vn 0.0410 -0.4524 0.8909
vn -0.0376 -0.3603 -0.9321
vn -0.1068 0.5968 -0.7953
vn 0.1276 0.8788 -0.4598
vn 0.1349 0.9316 -0.3375
vn 0.3862 0.7776 0.4962
vn 0.4794 -0.0739 0.8745
vn 0.0552 0.4403 0.8962
vn 0.0000 0.6055 0.7958
vn -0.0511 -0.7055 0.7068
vn -0.0795 -0.5311 0.8435
vn -0.0557 0.7969 -0.6015
vn -0.0638 0.8719 -0.4856
vn 0.0910 0.8654 -0.4928
vn -0.0000 0.8561 -0.5168
vn 0.7795 -0.2757 0.5625
vn 0.5464 0.8048 0.2319
vn -0.0218 0.2615 0.9650
vn 0.0008 0.2328 0.9725
vn 0.0285 -0.8750 0.4833
vn -0.0069 -0.7667 0.6419
vn -0.0946 0.7965 -0.5972
vn -0.1559 0.9675 -0.1991
vn -0.3888 -0.2017 0.8990
vn -0.5359 0.3879 -0.7499
vn -0.4395 -0.4712 0.7647
vn -0.9274 0.0442 -0.3713
vn -0.1514 0.6186 -0.7710
vn -0.1347 0.5517 -0.8231
vn 0.0000 0.5922 0.8058
vn 0.0014 0.5949 0.8038
vn 0.2924 0.5205 -0.8022
vn 0.2484 0.4469 -0.8594
vn 0.0812 -0.1992 0.9766
vn 0.1000 -0.2308 0.9679
vn 0.4101 0.7893 -0.4570
vn 0.3000 0.5816 -0.7561
vn -0.1707 0.1829 -0.9682
vn -0.1547 0.2259 -0.9618
vn -0.1616 -0.6676 0.7268
vn 0.0284 -0.4291 0.9028
vn -0.2117 0.0890 -0.9733
vn -0.0596 0.5391 -0.8401
vn 0.0684 -0.7557 0.6513
vn 0.0000 -0.7210 0.6929
vn -0.1670 0.4683 0.8676
vn -0.1356 0.3657 0.9208
vn -0.1023 0.8209 -0.5619
vn -0.0717 0.8736 -0.4813
vn 0.0000 0.3985 0.9172
vn 0.0421 0.2801 0.9590
vn -0.0313 0.8057 -0.5915
vn 0.0004 0.2800 0.9600
vn 0.1044 0.0062 0.9945
vn 0.1662 0.7477 -0.6429
vn 0.1899 0.7296 -0.6569
vn 0.5245 0.6231 0.5802
vn 0.6726 0.4974 0.5478
vn -0.9103 -0.0076 -0.4140
vn -0.9012 -0.0412 -0.4315
vn 0.0795 0.5244 0.8478
vn 0.0726 0.4828 0.8727
# 224 vertex normals

vt 0.2554 0.8460 0.0000
vt 0.2253 0.9336 0.0000
vt 0.2068 0.9013 0.0000
vt 0.2384 0.8409 0.0000
vt 0.4358 0.0988 0.0000
vt 0.3728 0.2395 0.0000
vt 0.0875 0.2675 0.0000
vt 0.1323 0.1158 0.0000
vt 0.7059 0.4744 0.0000
vt 0.5582 0.5894 0.0000
vt 0.5318 0.5043 0.0000
vt 0.6549 0.3780 0.0000
vt 0.7080 0.7180 0.0000
vt 0.5781 0.7920 0.0000
vt 0.0159 0.2403 0.0000
vt 0.0489 0.1113 0.0000
vt 0.1045 0.5349 0.0000
vt 0.1069 0.4259 0.0000
vt 0.3652 0.3837 0.0000
vt 0.3035 0.4949 0.0000
vt 0.4135 0.6388 0.0000
vt 0.3276 0.7782 0.0000
vt 0.3150 0.7248 0.0000
vt 0.3975 0.5815 0.0000
vt 0.4279 0.8164 0.0000
vt 0.3407 0.8832 0.0000
vt 0.0685 0.5234 0.0000
vt 0.0678 0.4278 0.0000
vt 0.5044 0.2518 0.0000
vt 0.5559 0.3464 0.0000
vt 0.3875 0.3331 0.0000
vt 0.4562 0.5729 0.0000
vt 0.4237 0.4948 0.0000
vt 0.4855 0.9825 0.0000
vt 0.4710 0.7746 0.0000
vt 0.5947 0.9740 0.0000
vt 0.3668 0.5125 0.0000
vt 0.3081 0.5741 0.0000
vt 0.2647 0.5645 0.0000
vt 0.2782 0.8387 0.0000
vt 0.2561 0.7808 0.0000
vt 0.3384 0.9940 0.0000
vt 0.2558 0.9928 0.0000
vt 0.2742 0.9095 0.0000
vt 0.7142 0.0023 0.0000
vt 0.7448 0.0269 0.0000
vt 0.7690 0.2591 0.0000
vt 0.7557 0.2601 0.0000
vt 0.7950 0.0224 0.0000
vt 0.8003 0.2020 0.0000
vt 0.1645 0.9774 0.0000
vt 0.0968 0.9761 0.0000
vt 0.2403 0.7345 0.0000
vt 0.2672 0.7479 0.0000
vt 0.0514 0.8851 0.0000
vt 0.1945 0.7331 0.0000
vt 0.9722 0.9939 0.0000
vt 0.9479 0.9917 0.0000
vt 0.9517 0.7710 0.0000
vt 0.9605 0.7715 0.0000
vt 0.9066 0.9951 0.0000
vt 0.9241 0.8194 0.0000
vt 0.8532 0.2183 0.0000
vt 0.8790 0.1955 0.0000
vt 0.8634 0.4562 0.0000
vt 0.8420 0.4543 0.0000
vt 0.9285 0.2379 0.0000
vt 0.8892 0.4499 0.0000
vt 0.8024 0.5190 0.0000
vt 0.8346 0.2564 0.0000
vt 0.3966 0.5159 0.0000
vt 0.1952 0.6861 0.0000
vt 0.9580 0.5002 0.0000
vt 0.8949 0.7678 0.0000
vt 0.8132 0.7303 0.0000
vt 0.9031 0.4714 0.0000
vt 0.4872 0.4090 0.0000
vt 0.4378 0.9867 0.0000
vt 0.9115 0.0182 0.0000
vt 0.0009 0.8642 0.0000
vt 0.2556 0.6317 0.0000
vt 0.1691 0.6437 0.0000
vt 0.2132 0.9932 0.0000
vt 0.8264 0.9935 0.0000
vt 0.9812 0.2620 0.0000
vt 0.1652 0.0372 0.0000
vt 0.4769 0.0094 0.0000
vt 0.1872 0.9884 0.0000
vt 0.5931 0.1216 0.0000
vt 0.7227 0.9317 0.0000
vt 0.0757 0.3812 0.0000
vt 0.0820 0.6022 0.0000
vt 0.7632 0.4618 0.0000
vt 0.7619 0.7135 0.0000
vt 0.0822 0.6576 0.0000
vt 0.7125 0.0419 0.0000
vt 0.7217 0.2294 0.0000
vt 0.0096 0.0741 0.0000
vt 0.7789 0.9400 0.0000
# 99 texture coords

g Alien10
usemtl wire_115115115
s off
f 1/1/1 2/2/1 3/3/1 
f 3/3/2 4/4/2 1/1/2 
f 5/5/3 6/6/3 7/7/3 
f 7/7/4 8/8/4 5/5/4 
f 9/9/5 10/10/5 11/11/5 
f 11/11/6 12/12/6 9/9/6 
f 13/13/7 14/14/7 10/10/7 
f 10/10/8 9/9/8 13/13/8 
f 8/8/9 7/7/9 15/15/9 
f 15/15/10 16/16/10 8/8/10 
f 17/17/11 18/18/11 19/19/11 
f 19/19/12 20/20/12 17/17/12 
f 21/21/13 22/22/13 23/23/13 
f 23/23/14 24/24/14 21/21/14 
f 25/25/15 26/26/15 22/22/15 
f 22/22/15 21/21/15 25/25/15 
f 18/18/16 17/17/16 27/27/16 
f 27/27/17 28/28/17 18/18/17 
f 11/29/18 29/30/18 30/31/18 
f 30/31/19 6/6/19 11/29/19 
f 31/32/20 29/33/20 11/11/20 
f 11/11/21 10/10/21 31/32/21 
f 32/34/22 33/35/22 14/14/22 
f 14/14/23 15/36/23 32/34/23 
f 23/37/24 34/38/24 35/39/24 
f 35/39/25 20/20/25 23/37/25 
f 36/40/26 34/41/26 23/23/26 
f 23/23/27 22/22/27 36/40/27 
f 27/42/28 37/43/28 38/44/28 
f 38/44/29 26/26/29 27/42/29 
f 18/45/30 28/46/30 39/47/30 
f 39/47/31 40/48/31 18/45/31 
f 32/49/32 41/50/32 39/47/32 
f 39/47/33 28/46/33 32/49/33 
f 15/51/34 7/52/34 42/53/34 
f 42/53/35 43/54/35 15/51/35 
f 7/52/36 44/55/36 45/56/36 
f 45/56/37 42/53/37 7/52/37 
f 46/57/38 47/58/38 48/59/38 
f 48/59/39 49/60/39 46/57/39 
f 37/61/40 50/62/40 48/59/40 
f 48/59/41 47/58/41 37/61/41 
f 27/63/42 17/64/42 51/65/42 
f 51/65/43 52/66/43 27/63/43 
f 17/64/44 53/67/44 54/68/44 
f 54/68/45 51/65/45 17/64/45 
f 40/48/46 39/47/46 55/69/46 
f 39/47/47 43/70/47 55/69/47 
f 43/54/48 42/53/48 55/71/48 
f 42/53/49 40/72/49 55/71/49 
f 49/60/50 48/59/50 56/73/50 
f 48/59/51 52/74/51 56/73/51 
f 52/66/52 51/65/52 56/75/52 
f 51/65/53 49/76/53 56/75/53 
f 29/30/54 24/77/54 19/19/54 
f 19/19/55 30/31/55 29/30/55 
f 21/21/56 24/24/56 29/33/56 
f 29/33/57 31/32/57 21/21/57 
f 32/34/58 28/78/58 25/25/58 
f 25/25/59 33/35/59 32/34/59 
f 32/49/60 15/79/60 43/70/60 
f 43/70/61 41/50/61 32/49/61 
f 45/56/62 44/55/62 18/80/62 
f 18/80/63 40/72/63 45/56/63 
f 4/81/64 3/82/64 35/39/64 
f 35/39/65 34/38/65 4/81/65 
f 1/1/66 4/4/66 34/41/66 
f 34/41/67 36/40/67 1/1/67 
f 37/43/68 47/83/68 2/2/68 
f 2/2/69 38/44/69 37/43/69 
f 37/61/70 27/84/70 52/74/70 
f 52/74/71 50/62/71 37/61/71 
f 46/85/72 49/76/72 54/68/72 
f 54/68/73 53/67/73 46/85/73 
f 39/47/74 41/50/74 43/70/74 
f 40/72/75 42/53/75 45/56/75 
f 48/59/76 50/62/76 52/74/76 
f 49/76/77 51/65/77 54/68/77 
f 5/5/78 8/8/78 57/86/78 
f 57/86/79 58/87/79 5/5/79 
f 2/2/80 47/83/80 46/88/80 
f 46/88/81 3/3/81 2/2/81 
f 6/6/82 5/5/82 12/89/82 
f 12/89/83 11/29/83 6/6/83 
f 16/90/84 15/36/84 14/14/84 
f 14/14/85 13/13/85 16/90/85 
f 20/20/86 19/19/86 24/77/86 
f 24/77/87 23/37/87 20/20/87 
f 28/78/15 27/42/15 26/26/15 
f 26/26/15 25/25/15 28/78/15 
f 6/6/88 30/31/88 44/91/88 
f 44/91/89 7/7/89 6/6/89 
f 33/35/90 31/32/90 10/10/90 
f 10/10/91 14/14/91 33/35/91 
f 20/20/92 35/39/92 53/92/92 
f 53/92/93 17/17/93 20/20/93 
f 36/40/94 22/22/94 26/26/94 
f 26/26/95 38/44/95 36/40/95 
f 9/9/96 59/93/96 60/94/96 
f 60/94/97 13/13/97 9/9/97 
f 18/18/98 44/91/98 30/31/98 
f 30/31/99 19/19/99 18/18/99 
f 21/21/100 31/32/100 33/35/100 
f 33/35/101 25/25/101 21/21/101 
f 35/39/64 3/82/64 46/95/64 
f 46/95/102 53/92/102 35/39/102 
f 1/1/103 36/40/103 38/44/103 
f 38/44/104 2/2/104 1/1/104 
f 12/89/105 5/5/105 58/87/105 
f 58/87/106 61/96/106 12/89/106 
f 59/93/107 9/9/107 12/12/107 
f 12/12/108 61/97/108 59/93/108 
f 8/8/109 16/16/109 62/98/109 
f 62/98/110 57/86/110 8/8/110 
f 16/90/111 13/13/111 60/94/111 
f 60/94/112 62/99/112 16/90/112 
f 63/1/113 64/4/113 65/3/113 
f 65/3/114 66/2/114 63/1/114 
f 67/5/115 68/8/115 69/7/115 
f 69/7/116 70/6/116 67/5/116 
f 71/9/117 72/12/117 73/11/117 
f 73/11/118 74/10/118 71/9/118 
f 75/13/119 71/9/119 74/10/119 
f 74/10/120 76/14/120 75/13/120 
f 68/8/121 77/16/121 78/15/121 
f 78/15/122 69/7/122 68/8/122 
f 79/17/123 80/20/123 81/19/123 
f 81/19/124 82/18/124 79/17/124 
f 83/21/125 84/24/125 85/23/125 
f 85/23/126 86/22/126 83/21/126 
f 87/25/127 83/21/127 86/22/127 
f 86/22/127 88/26/127 87/25/127 
f 82/18/128 89/28/128 90/27/128 
f 90/27/129 79/17/129 82/18/129 
f 73/29/130 70/6/130 91/31/130 
f 91/31/131 92/30/131 73/29/131 
f 93/32/132 74/10/132 73/11/132 
f 73/11/133 92/33/133 93/32/133 
f 94/34/134 78/36/134 76/14/134 
f 76/14/135 95/35/135 94/34/135 
f 85/37/136 80/20/136 96/39/136 
f 96/39/137 97/38/137 85/37/137 
f 98/40/138 86/22/138 85/23/138 
f 85/23/139 97/41/139 98/40/139 
f 90/42/140 88/26/140 99/44/140 
f 99/44/141 100/43/141 90/42/141 
f 82/45/142 101/48/142 102/47/142 
f 102/47/143 89/46/143 82/45/143 
f 94/49/144 89/46/144 102/47/144 
f 102/47/145 103/50/145 94/49/145 
f 78/51/146 104/54/146 105/53/146 
f 105/53/147 69/52/147 78/51/147 
f 69/52/148 105/53/148 106/56/148 
f 106/56/149 107/55/149 69/52/149 
f 108/57/150 109/60/150 110/59/150 
f 110/59/151 111/58/151 108/57/151 
f 100/61/152 111/58/152 110/59/152 
f 110/59/153 112/62/153 100/61/153 
f 90/63/154 113/66/154 114/65/154 
f 114/65/155 79/64/155 90/63/155 
f 79/64/156 114/65/156 115/68/156 
f 115/68/157 116/67/157 79/64/157 
f 101/48/158 117/69/158 102/47/158 
f 102/47/159 117/69/159 104/70/159 
f 104/54/160 117/71/160 105/53/160 
f 105/53/161 117/71/161 101/72/161 
f 109/60/162 118/73/162 110/59/162 
f 110/59/163 118/73/163 113/74/163 
f 113/66/164 118/75/164 114/65/164 
f 114/65/165 118/75/165 109/76/165 
f 92/30/166 91/31/166 81/19/166 
f 81/19/167 84/77/167 92/30/167 
f 83/21/168 93/32/168 92/33/168 
f 92/33/169 84/24/169 83/21/169 
f 94/34/170 95/35/170 87/25/170 
f 87/25/171 89/78/171 94/34/171 
f 94/49/172 103/50/172 104/70/172 
f 104/70/173 78/79/173 94/49/173 
f 106/56/174 101/72/174 82/80/174 
f 82/80/175 107/55/175 106/56/175 
f 64/81/176 97/38/176 96/39/176 
f 96/39/177 65/82/177 64/81/177 
f 63/1/178 98/40/178 97/41/178 
f 97/41/179 64/4/179 63/1/179 
f 100/43/180 99/44/180 66/2/180 
f 66/2/181 111/83/181 100/43/181 
f 100/61/182 112/62/182 113/74/182 
f 113/74/183 90/84/183 100/61/183 
f 108/85/184 116/67/184 115/68/184 
f 115/68/185 109/76/185 108/85/185 
f 102/47/186 104/70/186 103/50/186 
f 101/72/187 106/56/187 105/53/187 
f 110/59/188 113/74/188 112/62/188 
f 109/76/189 115/68/189 114/65/189 
f 67/5/190 58/87/190 57/86/190 
f 57/86/191 68/8/191 67/5/191 
f 66/2/192 65/3/192 108/88/192 
f 108/88/193 111/83/193 66/2/193 
f 70/6/194 73/29/194 72/89/194 
f 72/89/195 67/5/195 70/6/195 
f 77/90/196 75/13/196 76/14/196 
f 76/14/197 78/36/197 77/90/197 
f 80/20/198 85/37/198 84/77/198 
f 84/77/199 81/19/199 80/20/199 
f 89/78/127 87/25/127 88/26/127 
f 88/26/127 90/42/127 89/78/127 
f 70/6/200 69/7/200 107/91/200 
f 107/91/201 91/31/201 70/6/201 
f 95/35/202 76/14/202 74/10/202 
f 74/10/203 93/32/203 95/35/203 
f 80/20/204 79/17/204 116/92/204 
f 116/92/205 96/39/205 80/20/205 
f 98/40/206 99/44/206 88/26/206 
f 88/26/207 86/22/207 98/40/207 
f 71/9/208 75/13/208 60/94/208 
f 60/94/209 59/93/209 71/9/209 
f 82/18/210 81/19/210 91/31/210 
f 91/31/211 107/91/211 82/18/211 
f 83/21/212 87/25/212 95/35/212 
f 95/35/213 93/32/213 83/21/213 
f 96/39/214 116/92/214 108/95/214 
f 108/95/177 65/82/177 96/39/177 
f 63/1/215 66/2/215 99/44/215 
f 99/44/216 98/40/216 63/1/216 
f 72/89/217 61/96/217 58/87/217 
f 58/87/218 67/5/218 72/89/218 
f 59/93/219 61/97/219 72/12/219 
f 72/12/220 71/9/220 59/93/220 
f 68/8/221 57/86/221 62/98/221 
f 62/98/222 77/16/222 68/8/222 
f 77/90/223 62/99/223 60/94/223 
f 60/94/224 75/13/224 77/90/224 
# 232 faces

