# 3ds Max Wavefront OBJ Exporter v0.97b - (c)2007 guruware
# File Created: 05.10.2017 15:50:29

#
# object Alien02
#

v  -5.0837 1.2491 -0.3206
v  -3.6254 1.5666 -0.6634
v  -4.1910 0.4621 -1.0031
v  -6.1981 0.4621 -0.6563
v  -2.1498 1.7137 -0.3206
v  0.1349 1.7137 -0.1208
v  0.1646 0.4621 -0.4604
v  -2.1685 0.4621 -0.6603
v  2.2355 1.9464 -0.2555
v  2.2355 0.4621 -0.5979
v  0.0000 0.4621 -0.5979
v  0.0000 1.9464 -0.2555
v  2.1774 1.7295 -0.1364
v  8.8058 0.7072 2.3135
v  8.7536 0.4621 2.2798
v  2.1774 0.4621 -0.4774
v  -5.0837 1.3563 0.6501
v  -5.3352 0.4621 0.6690
v  -3.3001 0.4621 1.5429
v  -3.2988 2.3997 0.9929
v  -2.4364 0.7671 2.1155
v  -2.4268 0.4621 2.2162
v  -0.0492 0.4621 2.2951
v  0.1705 2.5469 1.7855
v  -2.3164 2.5469 1.5839
v  -0.0251 0.7808 2.4668
v  0.0174 0.4621 2.5151
v  1.9932 0.4621 2.4692
v  2.2401 0.7712 2.4476
v  2.2355 2.7796 1.9118
v  0.0000 2.7796 1.9118
v  1.9656 0.4621 2.3435
v  9.3071 0.4621 3.2797
v  9.1573 0.8148 2.9901
v  2.1774 2.5626 1.7927
v  -5.7272 0.4621 0.1911
v  -5.1388 1.5435 0.0840
v  1.9181 3.0538 0.7768
v  8.9683 0.9649 2.6245
v  -0.3287 3.2707 0.7841
v  1.9762 3.2707 0.7841
v  -2.6264 3.0381 0.5799
v  -0.1536 3.0381 0.7781
v  -3.2988 2.8909 0.1050
v  -2.4821 2.6256 0.5314
v  -2.0641 1.3013 -0.2263
v  -2.5043 0.4621 1.9224
v  -2.6870 0.4621 2.0866
v  -2.1437 2.1345 1.4040
v  -0.2545 0.4621 2.4611
v  1.9875 0.4621 2.4168
v  -2.0522 0.4621 -0.5575
v  9.1200 0.4621 2.6277
v  -5.0837 -0.3250 -0.3206
v  -3.6254 -0.6424 -0.6634
v  -2.1498 -0.7896 -0.3206
v  0.1349 -0.7896 -0.1208
v  2.2355 -1.0222 -0.2555
v  0.0000 -1.0222 -0.2555
v  2.1774 -0.8053 -0.1364
v  8.8058 0.2170 2.3135
v  -5.0837 -0.4321 0.6501
v  -3.2988 -1.4756 0.9929
v  -2.4364 0.1571 2.1155
v  0.1705 -1.6227 1.7855
v  -2.3164 -1.6227 1.5839
v  -0.0251 0.1434 2.4668
v  2.2401 0.1529 2.4476
v  2.2355 -1.8554 1.9118
v  0.0000 -1.8554 1.9118
v  2.1774 -1.6385 1.7927
v  9.1573 0.1094 2.9901
v  -5.1388 -0.6193 0.0840
v  8.9683 -0.0408 2.6245
v  1.9181 -2.1296 0.7768
v  1.9762 -2.3466 0.7841
v  -0.3287 -2.3466 0.7841
v  -0.1536 -2.1139 0.7781
v  -2.6264 -2.1139 0.5799
v  -2.0641 -0.3771 -0.2263
v  -2.4821 -1.7015 0.5314
v  -3.2988 -1.9667 0.1050
v  -2.1437 -1.2103 1.4040
v  4.0642 -0.9698 1.2698
v  3.4029 -0.6885 1.2482
v  2.2744 -3.4122 0.3240
v  2.9357 -3.6935 0.3456
v  3.8229 -0.6647 0.6652
v  2.6944 -3.3884 -0.2590
v  -2.6340 -1.2802 0.9840
v  -2.9554 -1.0958 0.9677
v  -3.6801 -2.4067 0.4230
v  -3.3588 -2.5911 0.4392
v  -2.7285 -1.0993 0.6743
v  -3.4533 -2.4102 0.1296
v  -1.9776 -2.0882 1.2151
v  -3.6131 -2.2828 0.8596
v  -3.2948 -3.6335 0.4283
v  -2.0090 -3.0511 0.9153
v  -2.0116 -2.2481 0.8844
v  -3.5087 -2.3353 0.4466
v  -3.3802 -2.4019 0.0571
v  -2.0505 -2.4140 0.5116
v  -7.2409 -1.8749 -0.1056
v  -7.6273 -1.7717 -0.4762
v  -5.9583 -2.9936 -0.3429
v  -6.1358 -1.9695 0.1024
v  -1.9776 2.9887 1.2151
v  -2.0090 3.9516 0.9153
v  -3.2948 4.5340 0.4283
v  -3.6131 3.1833 0.8596
v  -3.5087 3.2358 0.4466
v  -2.0116 3.1486 0.8844
v  -2.0505 3.3145 0.5116
v  -3.3802 3.3024 0.0571
v  -7.2409 2.7755 -0.1056
v  -6.1358 2.8700 0.1024
v  -5.9583 3.8941 -0.3429
v  -7.6273 2.6722 -0.4762
v  5.2197 2.9943 2.3279
v  6.1230 4.7150 1.8329
v  3.7001 6.5279 0.4433
v  2.3325 4.1343 1.2596
v  2.6580 4.1907 0.4961
v  6.5217 2.7979 1.7156
v  7.2342 2.3062 0.9923
v  2.9362 3.8942 -0.2315
v  -4.2569 5.5684 -1.4961
v  -2.2080 5.2108 -0.8184
v  -1.2774 7.0571 -1.5461
v  -4.9299 5.5676 -2.3110
v  5.2215 -2.0819 2.3280
v  2.3327 -3.2177 1.2596
v  3.6968 -5.6131 0.4431
v  6.1224 -3.8038 1.8328
v  6.5238 -1.8873 1.7157
v  2.6581 -3.2744 0.4961
v  2.9367 -2.9783 -0.2315
v  7.2370 -1.3966 0.9925
v  -4.2588 -4.6421 -1.4962
v  -4.9318 -4.6402 -2.3112
v  -1.2814 -6.1351 -1.5463
v  -2.2094 -4.2874 -0.8185
v  4.0608 1.8841 1.2698
v  2.9362 4.6094 0.3456
v  2.2745 4.3291 0.3240
v  3.3991 1.6038 1.2482
v  2.6945 4.3047 -0.2590
v  3.8190 1.5793 0.6652
v  -2.6340 2.1968 0.9840
v  -3.3588 3.5077 0.4392
v  -3.6801 3.3232 0.4230
v  -2.9554 2.0124 0.9677
v  -3.4533 3.3268 0.1296
v  -2.7285 2.0159 0.6743
# 155 vertices

vn -0.2928 0.4149 -0.8614
vn -0.1420 0.5516 -0.8219
vn 0.0841 0.2628 -0.9612
vn 0.0824 0.2599 -0.9621
vn 0.0000 0.2248 -0.9744
vn 0.3534 0.0530 -0.9340
vn 0.3753 0.2409 -0.8951
vn -0.3913 0.1292 0.9111
vn -0.3257 0.2584 0.9095
vn -0.0315 0.3123 0.9494
vn -0.0421 0.2414 0.9695
vn -0.0773 0.2901 0.9539
vn 0.0230 0.1528 0.9880
vn 0.0087 0.0626 0.9980
vn 0.0093 0.2578 0.9662
vn 0.0000 0.2675 0.9635
vn -0.1007 0.6054 0.7895
vn -0.0992 0.2617 0.9600
vn -0.6087 0.7176 0.3383
vn -0.8189 0.4053 -0.4063
vn 0.3600 0.5763 -0.7336
vn 0.3653 0.6140 -0.6997
vn 0.0000 0.6175 -0.7866
vn 0.0652 0.5771 -0.8141
vn 0.0716 0.5708 -0.8180
vn 0.5189 0.3297 -0.7887
vn 0.3107 0.5440 -0.7795
vn -0.9389 -0.3368 0.0707
vn -0.9585 -0.2358 -0.1605
vn -0.5681 0.5269 -0.6322
vn -0.9799 0.1148 0.1633
vn -0.7614 -0.0364 -0.6472
vn -0.6637 -0.5136 0.5438
vn -0.8938 -0.3923 0.2172
vn -0.5699 0.4228 -0.7046
vn -0.9964 0.0339 0.0771
vn -0.6809 -0.1054 -0.7247
vn 0.7944 -0.2317 0.5615
vn 0.9421 -0.0726 0.3274
vn 0.7650 -0.6023 -0.2282
vn 0.5848 -0.2604 -0.7682
vn 0.9462 -0.0814 -0.3133
vn 0.3074 0.3531 -0.8836
vn 0.2002 0.1930 -0.9606
vn -0.4869 0.6735 -0.5562
vn -0.3018 0.5331 -0.7904
vn 0.1584 0.9042 0.3967
vn 0.2047 0.9381 0.2794
vn 0.0000 0.9168 0.3993
vn -0.0363 0.8936 0.4474
vn -0.0359 0.8933 0.4481
vn 0.0298 0.8759 0.4815
vn 0.0315 0.8746 0.4838
vn -0.9071 -0.4137 0.0777
vn -0.9247 -0.3429 0.1655
vn -0.8112 -0.5845 -0.0181
vn -0.7989 -0.6004 -0.0357
vn 0.9573 -0.1094 -0.2678
vn 0.9097 -0.2321 -0.3444
vn -0.5173 0.7488 0.4142
vn -0.5644 0.7659 0.3081
vn 0.9457 0.1787 -0.2714
vn 0.8962 0.2681 -0.3534
vn 0.7719 0.2290 -0.5930
vn 0.6879 -0.0470 -0.7243
vn -0.9094 -0.0962 0.4047
vn -0.6336 -0.2918 0.7165
vn -0.8059 -0.1331 0.5770
vn -0.6255 -0.2181 0.7491
vn 0.9431 -0.0747 0.3240
vn 0.8945 -0.1162 0.4317
vn -0.2692 0.2632 0.9264
vn -0.4033 0.3491 0.8459
vn -0.8422 0.4821 0.2413
vn -0.7534 0.2249 0.6180
vn 0.7757 -0.6254 -0.0842
vn -0.4291 0.2708 0.8617
vn -0.1932 0.1218 0.9736
vn -0.1420 -0.5516 -0.8219
vn -0.2928 -0.4149 -0.8614
vn 0.0824 -0.2599 -0.9621
vn 0.0841 -0.2628 -0.9612
vn 0.0000 -0.2248 -0.9744
vn 0.3753 -0.2409 -0.8951
vn 0.3534 -0.0530 -0.9340
vn -0.3257 -0.2584 0.9095
vn -0.3913 -0.1292 0.9111
vn -0.0315 -0.3123 0.9494
vn -0.0421 -0.2414 0.9695
vn -0.0773 -0.2901 0.9539
vn 0.0230 -0.1528 0.9880
vn 0.0087 -0.0626 0.9980
vn 0.0093 -0.2578 0.9662
vn 0.0000 -0.2675 0.9635
vn -0.0992 -0.2617 0.9600
vn -0.1007 -0.6054 0.7895
vn -0.8189 -0.4053 -0.4063
vn -0.6087 -0.7176 0.3383
vn 0.3653 -0.6140 -0.6997
vn 0.3600 -0.5763 -0.7336
vn 0.0000 -0.6175 -0.7866
vn 0.0716 -0.5708 -0.8180
vn 0.0652 -0.5771 -0.8141
vn 0.3107 -0.5440 -0.7795
vn 0.5189 -0.3297 -0.7887
vn -0.9585 0.2358 -0.1605
vn -0.9389 0.3368 0.0707
vn -0.5681 -0.5269 -0.6322
vn -0.9799 -0.1148 0.1633
vn -0.7614 0.0364 -0.6472
vn -0.8938 0.3923 0.2172
vn -0.6637 0.5136 0.5438
vn -0.5699 -0.4228 -0.7046
vn -0.9964 -0.0339 0.0771
vn -0.6809 0.1054 -0.7247
vn 0.9421 0.0726 0.3274
vn 0.7944 0.2317 0.5615
vn 0.7650 0.6023 -0.2282
vn 0.5848 0.2604 -0.7682
vn 0.9462 0.0814 -0.3133
vn 0.2002 -0.1930 -0.9606
vn 0.3074 -0.3531 -0.8836
vn -0.3018 -0.5331 -0.7904
vn -0.4869 -0.6735 -0.5562
vn 0.2047 -0.9381 0.2794
vn 0.1584 -0.9042 0.3967
vn 0.0000 -0.9168 0.3993
vn -0.0359 -0.8933 0.4481
vn -0.0363 -0.8936 0.4474
vn 0.0315 -0.8746 0.4838
vn 0.0298 -0.8759 0.4815
vn -0.9247 0.3429 0.1655
vn -0.9071 0.4137 0.0777
vn -0.7989 0.6004 -0.0357
vn -0.8112 0.5845 -0.0181
vn 0.9097 0.2321 -0.3444
vn 0.9573 0.1094 -0.2678
vn -0.5644 -0.7659 0.3081
vn -0.5173 -0.7488 0.4142
vn 0.8962 -0.2681 -0.3534
vn 0.9457 -0.1787 -0.2714
vn 0.6879 0.0470 -0.7243
vn 0.7719 -0.2290 -0.5930
vn -0.6336 0.2918 0.7165
vn -0.9094 0.0962 0.4047
vn -0.6255 0.2181 0.7491
vn -0.8059 0.1331 0.5770
vn 0.8945 0.1162 0.4317
vn 0.9431 0.0747 0.3240
vn -0.4033 -0.3491 0.8459
vn -0.2692 -0.2632 0.9264
vn -0.7534 -0.2249 0.6180
vn -0.8422 -0.4821 0.2413
vn 0.7757 0.6254 -0.0842
vn -0.4291 -0.2708 0.8617
vn -0.1932 -0.1218 0.9736
vn -0.1435 -0.2642 0.9537
vn -0.7248 0.4709 -0.5029
vn 0.8683 -0.2068 -0.4509
vn -0.2060 -0.2762 0.9388
vn -0.6474 0.5688 -0.5074
vn 0.8534 -0.2926 -0.4314
vn -0.1620 -0.3346 0.9283
vn -0.2249 -0.2830 0.9324
vn 0.0767 0.8945 -0.4405
vn -0.0854 0.9855 -0.1467
vn 0.4347 -0.2321 -0.8702
vn 0.2757 -0.5016 -0.8200
vn 0.9948 -0.0007 -0.1020
vn 0.9946 -0.0008 -0.1034
vn -0.5649 -0.7295 0.3857
vn -0.2025 -0.4198 0.8847
vn -0.3082 -0.4238 0.8517
vn -0.3380 -0.3576 0.8706
vn 0.1281 0.9818 0.1399
vn 0.1393 0.9827 -0.1221
vn 0.1355 0.0773 -0.9878
vn 0.2077 -0.2691 -0.9405
vn 0.1499 0.8974 -0.4149
vn -0.0074 0.9853 -0.1709
vn 0.1486 0.9850 -0.0875
vn 0.1878 0.7169 -0.6715
vn -0.2249 0.2830 0.9324
vn -0.1620 0.3346 0.9283
vn -0.0854 -0.9855 -0.1467
vn 0.0767 -0.8945 -0.4405
vn 0.2757 0.5016 -0.8200
vn 0.4347 0.2321 -0.8702
vn 0.9946 0.0008 -0.1034
vn 0.9948 0.0007 -0.1020
vn -0.2025 0.4198 0.8847
vn -0.5649 0.7295 0.3857
vn -0.3380 0.3576 0.8706
vn -0.3082 0.4238 0.8517
vn 0.1393 -0.9827 -0.1221
vn 0.1281 -0.9818 0.1399
vn 0.2077 0.2691 -0.9405
vn 0.1355 -0.0773 -0.9878
vn -0.0074 -0.9853 -0.1709
vn 0.1499 -0.8974 -0.4149
vn 0.1878 -0.7169 -0.6715
vn 0.1486 -0.9850 -0.0875
vn -0.2305 0.3789 0.8963
vn -0.1724 0.4048 0.8980
vn -0.2967 -0.9347 -0.1955
vn -0.2579 -0.9335 -0.2490
vn 0.3962 0.4601 -0.7946
vn 0.5313 0.0624 -0.8449
vn 0.7456 0.1149 0.6564
vn 0.4295 0.0341 0.9024
vn -0.2093 0.4480 0.8692
vn -0.4154 0.8429 0.3421
vn -0.2890 0.4528 0.8435
vn -0.2733 0.4688 0.8400
vn -0.2636 -0.9243 0.2759
vn -0.2569 -0.9426 0.2131
vn 0.3796 0.1248 -0.9167
vn 0.2376 -0.0856 -0.9676
vn -0.3906 -0.8950 0.2154
vn -0.3926 -0.8930 0.2202
vn -0.3019 -0.8253 0.4772
vn -0.1660 -0.9757 -0.1428
vn -0.1730 -0.4046 0.8980
vn -0.2311 -0.3786 0.8962
vn -0.2566 0.9339 -0.2489
vn -0.2954 0.9352 -0.1954
vn 0.5312 -0.0631 -0.8449
vn 0.3956 -0.4606 -0.7946
vn 0.4295 -0.0348 0.9024
vn 0.7454 -0.1160 0.6564
vn -0.4166 -0.8423 0.3420
vn -0.2099 -0.4478 0.8691
vn -0.2740 -0.4685 0.8399
vn -0.2896 -0.4524 0.8435
vn -0.2555 0.9430 0.2132
vn -0.2623 0.9247 0.2760
vn 0.2377 0.0854 -0.9676
vn 0.3795 -0.1252 -0.9167
vn -0.3913 0.8935 0.2203
vn -0.3893 0.8955 0.2155
vn -0.1646 0.9760 -0.1427
vn -0.3007 0.8257 0.4773
vn -0.1431 0.2644 0.9537
vn -0.7255 -0.4699 -0.5029
vn 0.8686 0.2055 -0.4509
vn -0.2060 0.2762 0.9388
vn -0.6474 -0.5688 -0.5074
vn 0.8534 0.2926 -0.4314
# 248 vertex normals

vt 0.5059 0.3411 0.0000
vt 0.5834 0.3753 0.0000
vt 0.5353 0.4297 0.0000
vt 0.4338 0.3780 0.0000
vt 0.6960 0.3852 0.0000
vt 0.8149 0.4167 0.0000
vt 0.7918 0.4890 0.0000
vt 0.6685 0.4542 0.0000
vt 0.9412 0.4574 0.0000
vt 0.9191 0.5381 0.0000
vt 0.8051 0.4999 0.0000
vt 0.8330 0.4195 0.0000
vt 0.9545 0.6559 0.0000
vt 0.5801 0.4558 0.0000
vt 0.5862 0.4433 0.0000
vt 0.9978 0.5953 0.0000
vt 0.2615 0.1020 0.0000
vt 0.2518 0.0210 0.0000
vt 0.3893 0.0363 0.0000
vt 0.3691 0.1564 0.0000
vt 0.4737 0.0320 0.0000
vt 0.4783 0.0125 0.0000
vt 0.6132 0.0190 0.0000
vt 0.6161 0.1490 0.0000
vt 0.4738 0.1474 0.0000
vt 0.6376 0.0267 0.0000
vt 0.6440 0.0087 0.0000
vt 0.7631 0.0153 0.0000
vt 0.7677 0.0341 0.0000
vt 0.7639 0.1616 0.0000
vt 0.6361 0.1552 0.0000
vt 0.6720 0.8223 0.0000
vt 0.4820 0.4744 0.0000
vt 0.5160 0.4746 0.0000
vt 0.7802 0.7651 0.0000
vt 0.4420 0.2908 0.0000
vt 0.5090 0.2982 0.0000
vt 0.8778 0.7389 0.0000
vt 0.5509 0.4705 0.0000
vt 0.8572 0.2990 0.0000
vt 0.9727 0.3402 0.0000
vt 0.7121 0.2715 0.0000
vt 0.8422 0.3055 0.0000
vt 0.6311 0.2846 0.0000
vt 0.6941 0.2886 0.0000
vt 0.6740 0.3915 0.0000
vt 0.4475 0.0273 0.0000
vt 0.4604 0.0140 0.0000
vt 0.4447 0.1363 0.0000
vt 0.6289 0.0061 0.0000
vt 0.9831 0.3506 0.0000
vt 0.9525 0.4621 0.0000
vt 0.7759 0.0159 0.0000
vt 0.7826 0.0190 0.0000
vt 0.7811 0.1555 0.0000
vt 0.6584 0.4449 0.0000
vt 0.4933 0.2694 0.0000
vt 0.3929 0.2453 0.0000
vt 0.4273 0.1532 0.0000
vt 0.5309 0.1780 0.0000
vt 0.6264 0.2750 0.0000
vt 0.5104 0.2693 0.0000
vt 0.5417 0.1860 0.0000
vt 0.6571 0.1918 0.0000
vt 0.7090 0.2447 0.0000
vt 0.6521 0.2757 0.0000
vt 0.6756 0.2008 0.0000
vt 0.7171 0.1670 0.0000
vt 0.3841 0.2339 0.0000
vt 0.4171 0.1509 0.0000
vt 0.8088 0.2415 0.0000
vt 0.8190 0.1941 0.0000
vt 0.5424 0.4442 0.0000
vt 0.9354 0.5366 0.0000
vt 0.8699 0.2211 0.0000
vt 0.8418 0.3003 0.0000
vt 0.6143 0.9764 0.0000
vt 0.6144 0.9328 0.0000
vt 0.8019 0.9330 0.0000
vt 0.8018 0.9767 0.0000
vt 0.7925 0.8591 0.0000
vt 0.7927 0.8154 0.0000
vt 0.9802 0.8161 0.0000
vt 0.9801 0.8598 0.0000
vt 0.7929 0.7718 0.0000
vt 0.9804 0.7725 0.0000
vt 0.7989 0.9131 0.0000
vt 0.7990 0.8906 0.0000
vt 0.8957 0.8907 0.0000
vt 0.8957 0.9132 0.0000
vt 0.8382 0.9773 0.0000
vt 0.8383 0.9548 0.0000
vt 0.9351 0.9552 0.0000
vt 0.9350 0.9777 0.0000
vt 0.8384 0.9323 0.0000
vt 0.9351 0.9327 0.0000
vt 0.5073 0.9345 0.0000
vt 0.5089 0.8365 0.0000
vt 0.6061 0.8478 0.0000
vt 0.5613 0.9546 0.0000
vt 0.4976 0.9703 0.0000
vt 0.4794 0.8385 0.0000
vt 0.3864 0.9709 0.0000
vt 0.2685 0.9760 0.0000
vt 0.2854 0.8773 0.0000
vt 0.4523 0.8975 0.0000
vt 0.4753 0.9982 0.0000
vt 0.4948 0.5745 0.0000
vt 0.4861 0.5382 0.0000
vt 0.5792 0.6564 0.0000
vt 0.4989 0.6532 0.0000
vt 0.4508 0.8438 0.0000
vt 0.0940 0.8982 0.0000
vt 0.0051 0.7869 0.0000
vt 0.4852 0.5204 0.0000
vt 0.4484 0.7362 0.0000
vt 0.3403 0.7221 0.0000
vt 0.3013 0.5412 0.0000
vt 0.3378 0.7922 0.0000
vt 0.2480 0.5574 0.0000
vt 0.1742 0.5172 0.0000
vt 0.2590 0.7955 0.0000
vt 0.0967 0.7426 0.0000
vt 0.0062 0.5594 0.0000
vt 0.3088 0.8532 0.0000
vt 0.1633 0.0648 0.0000
vt 0.1318 0.0018 0.0000
vt 0.3538 0.1795 0.0000
vt 0.2045 0.2080 0.0000
vt 0.1976 0.5794 0.0000
vt 0.0071 0.2289 0.0000
vt 0.1211 0.0103 0.0000
# 132 texture coords

g Alien02
s off
f 1/1/1 2/2/1 3/3/1 
f 3/3/2 4/4/2 1/1/2 
f 5/5/3 6/6/3 7/7/3 
f 7/7/4 8/8/4 5/5/4 
f 9/9/5 10/10/5 11/11/5 
f 11/11/5 12/12/5 9/9/5 
f 13/13/6 14/14/6 15/15/6 
f 15/15/7 16/16/7 13/13/7 
f 17/17/8 18/18/8 19/19/8 
f 19/19/9 20/20/9 17/17/9 
f 21/21/10 22/22/10 23/23/10 
f 21/21/11 23/23/11 24/24/11 
f 25/25/12 21/21/12 24/24/12 
f 26/26/13 27/27/13 28/28/13 
f 26/26/14 28/28/14 29/29/14 
f 26/26/15 29/29/15 30/30/15 
f 31/31/16 26/26/16 30/30/16 
f 32/32/17 33/33/17 34/34/17 
f 34/34/18 35/35/18 32/32/18 
f 1/1/19 4/4/19 36/36/19 
f 36/36/20 37/37/20 1/1/20 
f 14/14/21 13/13/21 38/38/21 
f 38/38/22 39/39/22 14/14/22 
f 12/12/23 40/40/23 41/41/23 
f 41/41/23 9/9/23 12/12/23 
f 5/5/24 42/42/24 43/43/24 
f 43/43/25 6/6/25 5/5/25 
f 2/2/26 44/44/26 45/45/26 
f 45/45/27 46/46/27 2/2/27 
f 46/46/28 45/45/28 42/42/28 
f 42/42/29 5/5/29 46/46/29 
f 47/47/30 48/48/30 21/21/30 
f 47/47/31 21/21/31 25/25/31 
f 49/49/32 47/47/32 25/25/32 
f 6/6/33 43/43/33 40/40/33 
f 40/40/34 12/12/34 6/6/34 
f 23/23/35 50/50/35 26/26/35 
f 23/23/36 26/26/36 31/31/36 
f 24/24/37 23/23/37 31/31/37 
f 41/41/38 38/51/38 13/52/38 
f 13/52/39 9/9/39 41/41/39 
f 29/29/40 51/53/40 32/54/40 
f 29/29/41 32/54/41 35/55/41 
f 30/30/42 29/29/42 35/55/42 
f 2/2/43 46/46/43 52/56/43 
f 52/56/44 3/3/44 2/2/44 
f 1/1/45 37/37/45 44/44/45 
f 44/44/46 2/2/46 1/1/46 
f 38/38/47 35/35/47 34/34/47 
f 34/34/48 39/39/48 38/38/48 
f 31/57/49 30/58/49 41/59/49 
f 41/59/49 40/60/49 31/57/49 
f 25/61/50 24/62/50 43/63/50 
f 43/63/51 42/64/51 25/61/51 
f 20/65/52 49/66/52 45/67/52 
f 45/67/53 44/68/53 20/65/53 
f 49/66/54 25/61/54 42/64/54 
f 42/64/55 45/67/55 49/66/55 
f 24/62/56 31/57/56 40/60/56 
f 40/60/57 43/63/57 24/62/57 
f 41/59/58 30/58/58 35/69/58 
f 35/69/59 38/70/59 41/59/59 
f 17/71/60 20/65/60 44/68/60 
f 44/68/61 37/72/61 17/71/61 
f 34/34/62 33/33/62 53/73/62 
f 53/73/63 39/39/63 34/34/63 
f 14/14/64 39/39/64 53/73/64 
f 53/73/65 15/15/65 14/14/65 
f 46/46/66 5/5/66 8/8/66 
f 8/8/67 52/56/67 46/46/67 
f 6/6/68 12/12/68 11/11/68 
f 11/11/69 7/7/69 6/6/69 
f 10/10/70 9/9/70 13/52/70 
f 13/52/71 16/74/71 10/10/71 
f 49/49/72 20/20/72 19/19/72 
f 19/19/73 47/47/73 49/49/73 
f 17/71/74 37/72/74 36/75/74 
f 36/75/75 18/76/75 17/71/75 
f 51/53/76 29/29/76 28/28/76 
f 22/22/77 21/21/77 48/48/77 
f 27/27/78 26/26/78 50/50/78 
f 54/1/79 4/4/79 3/3/79 
f 3/3/80 55/2/80 54/1/80 
f 56/5/81 8/8/81 7/7/81 
f 7/7/82 57/6/82 56/5/82 
f 58/9/83 59/12/83 11/11/83 
f 11/11/83 10/10/83 58/9/83 
f 60/13/84 16/16/84 15/15/84 
f 15/15/85 61/14/85 60/13/85 
f 62/17/86 63/20/86 19/19/86 
f 19/19/87 18/18/87 62/17/87 
f 23/23/88 22/22/88 64/21/88 
f 65/24/89 23/23/89 64/21/89 
f 66/25/90 65/24/90 64/21/90 
f 28/28/91 27/27/91 67/26/91 
f 68/29/92 28/28/92 67/26/92 
f 69/30/93 68/29/93 67/26/93 
f 70/31/94 69/30/94 67/26/94 
f 32/32/95 71/35/95 72/34/95 
f 72/34/96 33/33/96 32/32/96 
f 54/1/97 73/37/97 36/36/97 
f 36/36/98 4/4/98 54/1/98 
f 61/14/99 74/39/99 75/38/99 
f 75/38/100 60/13/100 61/14/100 
f 59/12/101 58/9/101 76/41/101 
f 76/41/101 77/40/101 59/12/101 
f 56/5/102 57/6/102 78/43/102 
f 78/43/103 79/42/103 56/5/103 
f 55/2/104 80/46/104 81/45/104 
f 81/45/105 82/44/105 55/2/105 
f 80/46/106 56/5/106 79/42/106 
f 79/42/107 81/45/107 80/46/107 
f 64/21/108 48/48/108 47/47/108 
f 66/25/109 64/21/109 47/47/109 
f 83/49/110 66/25/110 47/47/110 
f 57/6/111 59/12/111 77/40/111 
f 77/40/112 78/43/112 57/6/112 
f 67/26/113 50/50/113 23/23/113 
f 70/31/114 67/26/114 23/23/114 
f 65/24/115 70/31/115 23/23/115 
f 76/41/116 58/9/116 60/52/116 
f 60/52/117 75/51/117 76/41/117 
f 32/54/118 51/53/118 68/29/118 
f 71/55/119 32/54/119 68/29/119 
f 69/30/120 71/55/120 68/29/120 
f 55/2/121 3/3/121 52/56/121 
f 52/56/122 80/46/122 55/2/122 
f 54/1/123 55/2/123 82/44/123 
f 82/44/124 73/37/124 54/1/124 
f 75/38/125 74/39/125 72/34/125 
f 72/34/126 71/35/126 75/38/126 
f 70/57/127 77/60/127 76/59/127 
f 76/59/127 69/58/127 70/57/127 
f 66/61/128 79/64/128 78/63/128 
f 78/63/129 65/62/129 66/61/129 
f 63/65/130 82/68/130 81/67/130 
f 81/67/131 83/66/131 63/65/131 
f 83/66/132 81/67/132 79/64/132 
f 79/64/133 66/61/133 83/66/133 
f 65/62/134 78/63/134 77/60/134 
f 77/60/135 70/57/135 65/62/135 
f 76/59/136 75/70/136 71/69/136 
f 71/69/137 69/58/137 76/59/137 
f 62/71/138 73/72/138 82/68/138 
f 82/68/139 63/65/139 62/71/139 
f 72/34/140 74/39/140 53/73/140 
f 53/73/141 33/33/141 72/34/141 
f 61/14/142 15/15/142 53/73/142 
f 53/73/143 74/39/143 61/14/143 
f 80/46/144 52/56/144 8/8/144 
f 8/8/145 56/5/145 80/46/145 
f 57/6/146 7/7/146 11/11/146 
f 11/11/147 59/12/147 57/6/147 
f 10/10/148 16/74/148 60/52/148 
f 60/52/149 58/9/149 10/10/149 
f 83/49/150 47/47/150 19/19/150 
f 19/19/151 63/20/151 83/49/151 
f 62/71/152 18/76/152 36/75/152 
f 36/75/153 73/72/153 62/71/153 
f 51/53/154 28/28/154 68/29/154 
f 22/22/155 48/48/155 64/21/155 
f 27/27/156 50/50/156 67/26/156 
f 84/77/157 85/78/157 86/79/157 
f 86/79/157 87/80/157 84/77/157 
f 85/81/158 88/82/158 89/83/158 
f 89/83/158 86/84/158 85/81/158 
f 88/82/159 84/85/159 87/86/159 
f 87/86/159 89/83/159 88/82/159 
f 90/87/160 91/88/160 92/89/160 
f 92/89/160 93/90/160 90/87/160 
f 91/91/161 94/92/161 95/93/161 
f 95/93/161 92/94/161 91/91/161 
f 94/92/162 90/95/162 93/96/162 
f 93/96/162 95/93/162 94/92/162 
f 96/97/163 97/98/163 98/99/163 
f 98/99/164 99/100/164 96/97/164 
f 96/97/165 100/101/165 101/102/165 
f 101/102/166 97/98/166 96/97/166 
f 99/103/167 98/104/167 102/105/167 
f 102/105/168 103/106/168 99/103/168 
f 100/101/169 96/97/169 99/100/169 
f 99/100/170 103/107/170 100/101/170 
f 104/108/171 105/109/171 106/110/171 
f 106/110/172 107/111/172 104/108/172 
f 97/98/173 107/111/173 106/110/173 
f 106/110/174 98/99/174 97/98/174 
f 102/112/175 105/109/175 104/108/175 
f 104/108/176 101/102/176 102/112/176 
f 106/113/177 105/114/177 102/105/177 
f 102/105/178 98/104/178 106/113/178 
f 100/101/179 103/107/179 102/112/179 
f 102/112/180 101/102/180 100/101/180 
f 107/111/181 97/98/181 101/102/181 
f 101/102/182 104/108/182 107/111/182 
f 108/99/183 109/100/183 110/97/183 
f 110/97/184 111/98/184 108/99/184 
f 108/97/185 111/101/185 112/102/185 
f 112/102/186 113/98/186 108/97/186 
f 109/105/187 114/106/187 115/103/187 
f 115/103/188 110/104/188 109/105/188 
f 113/100/189 114/107/189 109/101/189 
f 109/101/190 108/97/190 113/100/190 
f 116/108/191 117/109/191 118/110/191 
f 118/110/192 119/111/192 116/108/192 
f 111/98/193 110/111/193 118/110/193 
f 118/110/194 117/99/194 111/98/194 
f 115/112/195 112/109/195 116/108/195 
f 116/108/196 119/102/196 115/112/196 
f 118/105/197 110/104/197 115/113/197 
f 115/113/198 119/114/198 118/105/198 
f 113/101/199 112/107/199 115/112/199 
f 115/112/200 114/102/200 113/101/200 
f 117/102/201 116/108/201 112/111/201 
f 112/111/202 111/98/202 117/102/202 
f 120/115/203 121/116/203 122/117/203 
f 122/117/204 123/118/204 120/115/204 
f 120/117/205 123/119/205 124/120/205 
f 124/120/206 125/118/206 120/117/206 
f 121/121/207 126/122/207 127/123/207 
f 127/123/208 122/124/208 121/121/208 
f 125/116/209 126/125/209 121/119/209 
f 121/119/210 120/117/210 125/116/210 
f 128/126/211 129/127/211 130/128/211 
f 130/128/212 131/129/212 128/126/212 
f 123/118/213 122/129/213 130/128/213 
f 130/128/214 129/115/214 123/118/214 
f 127/130/215 124/127/215 128/126/215 
f 128/126/216 131/120/216 127/130/216 
f 130/121/217 122/124/217 127/131/217 
f 127/131/218 131/132/218 130/121/218 
f 125/119/219 124/125/219 127/130/219 
f 127/130/220 126/120/220 125/119/220 
f 129/120/221 128/126/221 124/129/221 
f 124/129/222 123/118/222 129/120/222 
f 132/117/223 133/118/223 134/115/223 
f 134/115/224 135/116/224 132/117/224 
f 132/117/225 136/119/225 137/120/225 
f 137/120/226 133/118/226 132/117/226 
f 135/123/227 134/124/227 138/121/227 
f 138/121/228 139/122/228 135/123/228 
f 136/119/229 132/117/229 135/116/229 
f 135/116/230 139/125/230 136/119/230 
f 140/126/231 141/127/231 142/128/231 
f 142/128/232 143/129/232 140/126/232 
f 133/118/233 143/129/233 142/128/233 
f 142/128/234 134/115/234 133/118/234 
f 138/130/235 141/127/235 140/126/235 
f 140/126/236 137/120/236 138/130/236 
f 142/131/237 141/132/237 138/121/237 
f 138/121/238 134/124/238 142/131/238 
f 136/119/239 139/125/239 138/130/239 
f 138/130/240 137/120/240 136/119/240 
f 143/129/241 133/118/241 137/120/241 
f 137/120/242 140/126/242 143/129/242 
f 144/77/243 145/78/243 146/79/243 
f 146/79/243 147/80/243 144/77/243 
f 147/81/244 146/82/244 148/83/244 
f 148/83/244 149/84/244 147/81/244 
f 149/82/245 148/85/245 145/86/245 
f 145/86/245 144/83/245 149/82/245 
f 150/87/246 151/88/246 152/89/246 
f 152/89/246 153/90/246 150/87/246 
f 153/91/247 152/92/247 154/93/247 
f 154/93/247 155/94/247 153/91/247 
f 155/92/248 154/95/248 151/96/248 
f 151/96/248 150/93/248 155/92/248 
# 266 faces

